<svg id="Capa_1" data-name="Capa 1" xmlns="http://www.w3.org/2000/svg" viewBox="0 0 296.77 196.7"><defs><style>.cls-1{fill:#222831;}</style></defs><title>jd</title><path class="cls-1" d="M57.79,115.86c-8.53,30.61-9.58,40.81-22.17,40.81H16.85c-1.71,0-3.41,0-5.12,5.1L1.5,194.07c-.79,2.92.06,3.37,3.41,3.4H52.67c11.94,0,21-2.2,27.29-8.5,6.74-6.79,11.36-16.28,13.64-23.8,14.92-49.07,26.13-97.56,30.7-115.62,1.14-4.52,4.36-7.42,8.49-7.42h76.14a50,50,0,0,1,13.76,2.4A35.26,35.26,0,0,1,233,49.87c15.56,11.41,16.11,28.36,11.17,48.47q-.67,2.74-1.47,5.55c-.94,3.32-2,6.72-3.15,10.19-7.63,23.14-18.5,34.46-29.49,38.38a45.14,45.14,0,0,1-12.64,2.4l-37.3.11c-1.31,0-4.1-.5-3.41-3.4.08-.36,0,0,.19-.7l23.69-87.71c0-3.4-1.57-4.19-5.32-4.23h-37.2a2.38,2.38,0,0,0-2.22,1.9L101.39,194.65a2.59,2.59,0,0,0,2.22,3.38h97.1c1,0,15.13-.06,19.1-.55,1.31-.17,2.73-.26,4.23-.4,10.8-1,30.25-2.4,50.34-35.31,5.17-8.47,10.23-15.3,18.76-42.51,6.58-21,5.12-40.81,3.41-56.11a64.55,64.55,0,0,0-3.41-15.3c-8.53-25.5-26.26-38.33-40.93-42.51-1.85-.53-3.22-1.1-4.55-1.35-10.8-2-11-2.14-67.82-2.63H98.41c-.11,0-3.88,0-7.11,0a6.51,6.51,0,0,0-2.14.37h0a3.92,3.92,0,0,0-1.24.66A9.6,9.6,0,0,0,85.07,7C81.48,21.37,58,115.22,57.79,115.86Z" transform="translate(-1.23 -1.33)"/></svg>