<svg id="Capa_1" data-name="Capa 1" xmlns="http://www.w3.org/2000/svg" viewBox="0 0 148.89 98.69"><defs><style>.cls-1{fill:#fff;}</style></defs><title>jd_white</title><path class="cls-1" d="M29.48,58.46C25.2,73.82,24.67,78.93,18.36,78.93H8.94c-.86,0-1.71,0-2.57,2.56L1.24,97.7c-.39,1.47,0,1.69,1.71,1.71h24c6,0,10.55-1.11,13.69-4.27A30.12,30.12,0,0,0,47.45,83.2c7.48-24.62,13.11-48.95,15.4-58a4.46,4.46,0,0,1,4.26-3.72h38.2a25.09,25.09,0,0,1,6.91,1.2,17.69,17.69,0,0,1,5.17,2.68c9.77,7.16,8.13,18.82,3.28,32.21-4.23,11.7-10.06,17.46-14.8,19.25A20.1,20.1,0,0,1,99.53,78l-18.71.06c-.66,0-2.06-.25-1.71-1.71,0-.18,0,0,.1-.35L91.09,32c0-1.71-.79-2.1-2.67-2.12H69.76a1.19,1.19,0,0,0-1.12,1L51.35,98a1.3,1.3,0,0,0,1.12,1.7h48.72c.51,0,7.58-.18,9.58-.28,5.86-.29,16,1.06,27.38-17.91,2.57-4.27,5.13-7.68,9.41-21.33,3.3-10.52,2.57-20.47,1.71-28.15a32.39,32.39,0,0,0-1.71-7.68C143.29,11.54,134.39,5.11,127,3c-.93-.26-1.62-.55-2.28-.68-5.42-1-5.52-1.07-34-1.32H46.29a3.27,3.27,0,0,0-1.07.18h0a2,2,0,0,0-.62.33,4.82,4.82,0,0,0-1.42,2.35C41.37,11.05,29.57,58.14,29.48,58.46Z" transform="translate(-1.11 -1)"/></svg>